<svg width="1111.000000" height="196.000000" viewBox="0 0 1111 196" fill="none" xmlns="http://www.w3.org/2000/svg" xmlns:xlink="http://www.w3.org/1999/xlink">
	<desc>
			Created with Pixso.
	</desc>
	<defs>
		<clipPath id="clip0_2119">
			<rect id="Group 13" width="1111.000000" height="196.000000" fill="white" fill-opacity="0"/>
		</clipPath>
		<linearGradient id="paint_linear_0_2121_0" x1="0.000061" y1="0.000000" x2="0.000061" y2="196.000000" gradientUnits="userSpaceOnUse">
			<stop stop-color="#FEFCF7" stop-opacity="0.000000"/>
			<stop offset="1.000000" stop-color="#FEFCF7"/>
		</linearGradient>
	</defs>
	<g opacity="0.503176">
		<rect id="Group 13" width="1111.000000" height="196.000000" fill="#FFFFFF" fill-opacity="0"/>
		<g clip-path="url(#clip0_2119)">
			<path id="our collection" d="M66.7049 101.675C75.2049 101.675 82.6299 103.3 88.9799 106.55C95.3299 109.75 100.255 114.25 103.755 120.05C107.305 125.85 109.08 132.6 109.08 140.3C109.08 147.4 107.23 153.825 103.53 159.575C99.8299 165.325 94.7049 169.9 88.1549 173.3C81.6549 176.65 74.1049 178.325 65.5049 178.325C57.0049 178.325 49.5799 176.7 43.2299 173.45C36.8799 170.15 31.9299 165.6 28.3799 159.8C24.8799 154 23.1299 147.3 23.1299 139.7C23.1299 132.45 24.9799 125.975 28.6799 120.275C32.3799 114.525 37.4799 110 43.9799 106.7C50.5299 103.35 58.1049 101.675 66.7049 101.675ZM72.1799 167.45C74.0799 167 75.5299 165.675 76.5299 163.475C77.5299 161.275 77.9799 158.075 77.8799 153.875C77.7799 149.675 77.0299 144.35 75.6299 137.9C74.3299 131.7 72.8549 126.65 71.2049 122.75C69.6049 118.85 67.8549 116.05 65.9549 114.35C64.0549 112.65 62.0799 112.05 60.0299 112.55C58.1299 113 56.6799 114.325 55.6799 116.525C54.6799 118.725 54.2299 121.925 54.3299 126.125C54.4799 130.275 55.2299 135.6 56.5799 142.1C57.8799 148.25 59.3549 153.3 61.0049 157.25C62.6549 161.15 64.4049 163.95 66.2549 165.65C68.1549 167.3 70.1299 167.9 72.1799 167.45ZM172.162 160.85L172.162 159.875L171.037 159.875L171.037 125.225C171.037 123.625 170.812 122.5 170.362 121.85C169.962 121.15 169.337 120.675 168.487 120.425L166.837 119.9C165.787 119.55 165.012 119.05 164.512 118.4C164.062 117.75 163.837 116.925 163.837 115.925C163.837 114.725 164.162 113.775 164.812 113.075C165.462 112.375 166.687 111.675 168.487 110.975L185.137 104.525C187.687 103.525 189.737 102.8 191.287 102.35C192.887 101.9 194.437 101.675 195.937 101.675C198.187 101.675 199.887 102.325 201.037 103.625C202.237 104.875 202.837 106.475 202.837 108.425L202.837 160.475C202.837 162.475 202.987 163.9 203.287 164.75C203.587 165.55 204.112 166.125 204.862 166.475L206.512 167.225C207.662 167.725 208.487 168.35 208.987 169.1C209.487 169.85 209.737 170.725 209.737 171.725C209.737 173.125 209.287 174.225 208.387 175.025C207.487 175.825 206.037 176.225 204.037 176.225L185.662 176.225C182.112 176.225 178.962 174.7 176.212 171.65C173.512 168.6 172.162 165 172.162 160.85ZM122.587 154.325L122.587 125.225C122.587 123.625 122.362 122.5 121.912 121.85C121.512 121.15 120.887 120.675 120.037 120.425L118.387 119.9C117.337 119.55 116.562 119.05 116.062 118.4C115.612 117.75 115.387 116.925 115.387 115.925C115.387 114.725 115.712 113.775 116.362 113.075C117.012 112.375 118.237 111.675 120.037 110.975L136.687 104.525C139.387 103.475 141.512 102.75 143.062 102.35C144.612 101.9 145.987 101.675 147.187 101.675C149.587 101.675 151.387 102.325 152.587 103.625C153.787 104.875 154.387 106.475 154.387 108.425L154.387 149.825C154.387 153.025 155.112 155.425 156.562 157.025C158.062 158.625 160.137 159.425 162.787 159.425C164.437 159.425 166.162 159.1 167.962 158.45C169.762 157.8 171.362 156.85 172.762 155.6L175.387 153.275L179.887 158.075L177.637 160.175C170.587 166.925 164.462 171.65 159.262 174.35C154.062 177 149.287 178.325 144.937 178.325C138.287 178.325 132.887 176.1 128.737 171.65C124.637 167.2 122.587 161.425 122.587 154.325ZM254.183 135.275C254.183 127.625 255.183 121.325 257.183 116.375C259.183 111.375 261.833 107.675 265.133 105.275C268.483 102.875 272.133 101.675 276.083 101.675C281.383 101.675 285.433 103.275 288.233 106.475C291.083 109.625 292.508 114.4 292.508 120.8C292.508 127.35 291.183 132.175 288.533 135.275C285.933 138.375 282.533 139.925 278.333 139.925C274.083 139.925 270.883 138.85 268.733 136.7C266.633 134.5 265.583 131.475 265.583 127.625L265.583 124.475C265.533 123.175 265.233 122.2 264.683 121.55C264.183 120.85 263.383 120.5 262.283 120.5C261.283 120.5 260.383 120.95 259.583 121.85C258.833 122.7 258.233 124.125 257.783 126.125C257.333 128.075 257.108 130.725 257.108 134.075L254.183 135.275ZM255.008 108.425L257.108 124.1L257.108 160.475C257.108 162.225 257.358 163.475 257.858 164.225C258.358 164.925 259.508 165.45 261.308 165.8L267.008 166.925C268.508 167.225 269.608 167.75 270.308 168.5C271.008 169.25 271.358 170.3 271.358 171.65C271.358 173.1 270.858 174.225 269.858 175.025C268.908 175.825 267.483 176.225 265.583 176.225L224.108 176.225C222.108 176.225 220.658 175.825 219.758 175.025C218.858 174.225 218.408 173.125 218.408 171.725C218.408 170.725 218.658 169.85 219.158 169.1C219.658 168.35 220.483 167.725 221.633 167.225L223.283 166.475C224.033 166.125 224.558 165.55 224.858 164.75C225.158 163.9 225.308 162.475 225.308 160.475L225.308 125.525C225.308 123.925 225.083 122.8 224.633 122.15C224.233 121.45 223.608 120.975 222.758 120.725L221.108 120.2C220.058 119.85 219.283 119.35 218.783 118.7C218.333 118.05 218.108 117.225 218.108 116.225C218.108 115.025 218.433 114.075 219.083 113.375C219.783 112.625 221.008 111.925 222.758 111.275L238.883 104.975C242.433 103.575 244.983 102.675 246.533 102.275C248.083 101.875 249.283 101.675 250.133 101.675C251.533 101.675 252.608 102.2 253.358 103.25C254.108 104.25 254.658 105.975 255.008 108.425ZM404.068 124.85C404.068 128.65 402.618 131.875 399.718 134.525C396.868 137.175 393.043 138.5 388.243 138.5C383.593 138.5 380.093 137.275 377.743 134.825C375.443 132.325 374.293 129.15 374.293 125.3L374.293 122.9C374.293 119.65 373.618 117.1 372.268 115.25C370.918 113.35 369.143 112.4 366.943 112.4C365.193 112.4 363.543 113.05 361.993 114.35C360.493 115.65 359.268 117.65 358.318 120.35C357.368 123 356.893 126.375 356.893 130.475C356.893 136.275 357.868 141.125 359.818 145.025C361.818 148.925 364.543 151.875 367.993 153.875C371.443 155.825 375.368 156.8 379.768 156.8C382.968 156.8 385.843 156.425 388.393 155.675C390.993 154.875 393.568 153.35 396.118 151.1C397.568 149.8 398.668 148.925 399.418 148.475C400.168 148.025 400.893 147.8 401.593 147.8C402.593 147.8 403.318 148.3 403.768 149.3C404.268 150.3 404.518 151.525 404.518 152.975C404.518 157.425 403.018 161.6 400.018 165.5C397.068 169.35 392.943 172.45 387.643 174.8C382.343 177.15 376.193 178.325 369.193 178.325C361.543 178.325 354.668 176.825 348.568 173.825C342.518 170.775 337.718 166.55 334.168 161.15C330.618 155.7 328.843 149.35 328.843 142.1C328.843 134.35 330.543 127.425 333.943 121.325C337.393 115.225 342.243 110.425 348.493 106.925C354.793 103.425 362.218 101.675 370.768 101.675C377.618 101.675 383.518 102.725 388.468 104.825C393.468 106.875 397.318 109.65 400.018 113.15C402.718 116.65 404.068 120.55 404.068 124.85ZM456.06 101.675C464.56 101.675 471.985 103.3 478.335 106.55C484.685 109.75 489.61 114.25 493.11 120.05C496.66 125.85 498.435 132.6 498.435 140.3C498.435 147.4 496.585 153.825 492.885 159.575C489.185 165.325 484.06 169.9 477.51 173.3C471.01 176.65 463.46 178.325 454.86 178.325C446.36 178.325 438.935 176.7 432.585 173.45C426.235 170.15 421.285 165.6 417.735 159.8C414.235 154 412.485 147.3 412.485 139.7C412.485 132.45 414.335 125.975 418.035 120.275C421.735 114.525 426.835 110 433.335 106.7C439.885 103.35 447.46 101.675 456.06 101.675ZM461.535 167.45C463.435 167 464.885 165.675 465.885 163.475C466.885 161.275 467.335 158.075 467.235 153.875C467.135 149.675 466.385 144.35 464.985 137.9C463.685 131.7 462.21 126.65 460.56 122.75C458.96 118.85 457.21 116.05 455.31 114.35C453.41 112.65 451.435 112.05 449.385 112.55C447.485 113 446.035 114.325 445.035 116.525C444.035 118.725 443.585 121.925 443.685 126.125C443.835 130.275 444.585 135.6 445.935 142.1C447.235 148.25 448.71 153.3 450.36 157.25C452.01 161.15 453.76 163.95 455.61 165.65C457.51 167.3 459.485 167.9 461.535 167.45ZM545.242 69.725L545.242 160.475C545.242 162.475 545.392 163.9 545.692 164.75C545.992 165.55 546.517 166.125 547.267 166.475L548.917 167.225C550.067 167.725 550.892 168.35 551.392 169.1C551.892 169.85 552.142 170.725 552.142 171.725C552.142 173.125 551.692 174.225 550.792 175.025C549.892 175.825 548.442 176.225 546.442 176.225L512.242 176.225C510.242 176.225 508.792 175.825 507.892 175.025C506.992 174.225 506.542 173.125 506.542 171.725C506.542 170.725 506.792 169.85 507.292 169.1C507.792 168.35 508.617 167.725 509.767 167.225L511.417 166.475C512.167 166.125 512.692 165.55 512.992 164.75C513.292 163.9 513.442 162.475 513.442 160.475L513.442 86.525C513.442 84.925 513.217 83.8 512.767 83.15C512.367 82.45 511.742 81.975 510.892 81.725L509.242 81.2C508.192 80.85 507.417 80.35 506.917 79.7C506.467 79.05 506.242 78.225 506.242 77.225C506.242 76.025 506.567 75.075 507.217 74.375C507.867 73.675 509.092 72.975 510.892 72.275L527.542 65.825C530.242 64.775 532.367 64.05 533.917 63.65C535.467 63.2 536.842 62.975 538.042 62.975C540.442 62.975 542.242 63.625 543.442 64.925C544.642 66.175 545.242 67.775 545.242 69.725ZM597.977 69.725L597.977 160.475C597.977 162.475 598.127 163.9 598.427 164.75C598.727 165.55 599.252 166.125 600.002 166.475L601.652 167.225C602.802 167.725 603.627 168.35 604.127 169.1C604.627 169.85 604.877 170.725 604.877 171.725C604.877 173.125 604.427 174.225 603.527 175.025C602.627 175.825 601.177 176.225 599.177 176.225L564.977 176.225C562.977 176.225 561.527 175.825 560.627 175.025C559.727 174.225 559.277 173.125 559.277 171.725C559.277 170.725 559.527 169.85 560.027 169.1C560.527 168.35 561.352 167.725 562.502 167.225L564.152 166.475C564.902 166.125 565.427 165.55 565.727 164.75C566.027 163.9 566.177 162.475 566.177 160.475L566.177 86.525C566.177 84.925 565.952 83.8 565.502 83.15C565.102 82.45 564.477 81.975 563.627 81.725L561.977 81.2C560.927 80.85 560.152 80.35 559.652 79.7C559.202 79.05 558.977 78.225 558.977 77.225C558.977 76.025 559.302 75.075 559.952 74.375C560.602 73.675 561.827 72.975 563.627 72.275L580.277 65.825C582.977 64.775 585.102 64.05 586.652 63.65C588.202 63.2 589.577 62.975 590.777 62.975C593.177 62.975 594.977 63.625 596.177 64.925C597.377 66.175 597.977 67.775 597.977 69.725ZM687.986 130.625C687.986 134.125 687.036 136.85 685.136 138.8C683.236 140.7 680.511 141.65 676.961 141.65L632.486 141.65L632.486 133.85L652.511 133.85C655.261 133.85 656.636 132.55 656.636 129.95C656.636 123.65 655.911 119.15 654.461 116.45C653.011 113.75 651.086 112.4 648.686 112.4C646.936 112.4 645.361 113.05 643.961 114.35C642.561 115.65 641.436 117.65 640.586 120.35C639.786 123 639.386 126.375 639.386 130.475C639.386 139.575 641.436 146.25 645.536 150.5C649.636 154.7 655.236 156.8 662.336 156.8C665.636 156.8 668.636 156.425 671.336 155.675C674.036 154.925 676.686 153.4 679.286 151.1C680.736 149.8 681.836 148.925 682.586 148.475C683.336 148.025 684.061 147.8 684.761 147.8C685.761 147.8 686.486 148.3 686.936 149.3C687.436 150.3 687.686 151.525 687.686 152.975C687.686 157.425 686.161 161.6 683.111 165.5C680.111 169.35 675.911 172.45 670.511 174.8C665.161 177.15 658.911 178.325 651.761 178.325C644.111 178.325 637.236 176.825 631.136 173.825C625.036 170.775 620.211 166.55 616.661 161.15C613.111 155.7 611.336 149.35 611.336 142.1C611.336 133.95 612.961 126.85 616.211 120.8C619.461 114.75 624.186 110.05 630.386 106.7C636.636 103.35 644.161 101.675 652.961 101.675C660.711 101.675 667.186 102.925 672.386 105.425C677.586 107.925 681.486 111.35 684.086 115.7C686.686 120.05 687.986 125.025 687.986 130.625ZM770.572 124.85C770.572 128.65 769.122 131.875 766.222 134.525C763.372 137.175 759.547 138.5 754.747 138.5C750.097 138.5 746.597 137.275 744.247 134.825C741.947 132.325 740.797 129.15 740.797 125.3L740.797 122.9C740.797 119.65 740.122 117.1 738.772 115.25C737.422 113.35 735.647 112.4 733.447 112.4C731.697 112.4 730.047 113.05 728.497 114.35C726.997 115.65 725.772 117.65 724.822 120.35C723.872 123 723.397 126.375 723.397 130.475C723.397 136.275 724.372 141.125 726.322 145.025C728.322 148.925 731.047 151.875 734.497 153.875C737.947 155.825 741.872 156.8 746.272 156.8C749.472 156.8 752.347 156.425 754.897 155.675C757.497 154.875 760.072 153.35 762.622 151.1C764.072 149.8 765.172 148.925 765.922 148.475C766.672 148.025 767.397 147.8 768.097 147.8C769.097 147.8 769.822 148.3 770.272 149.3C770.772 150.3 771.022 151.525 771.022 152.975C771.022 157.425 769.522 161.6 766.522 165.5C763.572 169.35 759.447 172.45 754.147 174.8C748.847 177.15 742.697 178.325 735.697 178.325C728.047 178.325 721.172 176.825 715.072 173.825C709.022 170.775 704.222 166.55 700.672 161.15C697.122 155.7 695.347 149.35 695.347 142.1C695.347 134.35 697.047 127.425 700.447 121.325C703.897 115.225 708.747 110.425 714.997 106.925C721.297 103.425 728.722 101.675 737.272 101.675C744.122 101.675 750.022 102.725 754.972 104.825C759.972 106.875 763.822 109.65 766.522 113.15C769.222 116.65 770.572 120.55 770.572 124.85ZM782.439 113.675L780.039 112.7C778.939 112.25 778.114 111.675 777.564 110.975C777.014 110.275 776.739 109.425 776.739 108.425C776.739 106.975 777.214 105.875 778.164 105.125C779.164 104.325 780.439 103.925 781.989 103.925L786.114 103.925C787.064 103.925 787.939 103.675 788.739 103.175C789.589 102.675 790.664 101.775 791.964 100.475L804.189 88.1C805.839 86.45 807.364 85.225 808.764 84.425C810.214 83.625 811.589 83.225 812.889 83.225C814.339 83.225 815.464 83.7 816.264 84.65C817.114 85.6 817.539 86.975 817.539 88.775L817.539 148.925C817.539 152.575 818.164 155.35 819.414 157.25C820.664 159.15 822.464 160.1 824.814 160.1C826.714 160.1 828.164 159.625 829.164 158.675C830.214 157.725 831.039 156.65 831.639 155.45C832.289 154.2 832.964 153.1 833.664 152.15C834.364 151.2 835.314 150.725 836.514 150.725C837.514 150.725 838.314 151.075 838.914 151.775C839.514 152.475 839.814 153.675 839.814 155.375C839.814 159.625 838.589 163.5 836.139 167C833.689 170.45 830.314 173.2 826.014 175.25C821.714 177.3 816.814 178.325 811.314 178.325C803.164 178.325 796.864 176.375 792.414 172.475C787.964 168.525 785.739 162.575 785.739 154.625L785.739 118.55C785.739 117.1 785.464 116.05 784.914 115.4C784.414 114.75 783.589 114.175 782.439 113.675ZM806.589 114.575L806.589 103.925L833.964 103.925C835.514 103.925 836.739 104.275 837.639 104.975C838.589 105.625 839.064 106.575 839.064 107.825C839.064 109.725 838.139 111.325 836.289 112.625C834.439 113.925 831.389 114.575 827.139 114.575L806.589 114.575ZM884.647 108.425L884.647 160.475C884.647 162.475 884.797 163.9 885.097 164.75C885.397 165.55 885.922 166.125 886.672 166.475L888.322 167.225C889.472 167.725 890.297 168.35 890.797 169.1C891.297 169.85 891.547 170.725 891.547 171.725C891.547 173.125 891.097 174.225 890.197 175.025C889.297 175.825 887.847 176.225 885.847 176.225L851.647 176.225C849.647 176.225 848.197 175.825 847.297 175.025C846.397 174.225 845.947 173.125 845.947 171.725C845.947 170.725 846.197 169.85 846.697 169.1C847.197 168.35 848.022 167.725 849.172 167.225L850.822 166.475C851.572 166.125 852.097 165.55 852.397 164.75C852.697 163.9 852.847 162.475 852.847 160.475L852.847 125.225C852.847 123.625 852.622 122.5 852.172 121.85C851.772 121.15 851.147 120.675 850.297 120.425L848.647 119.9C847.597 119.55 846.822 119.05 846.322 118.4C845.872 117.75 845.647 116.925 845.647 115.925C845.647 114.725 845.972 113.775 846.622 113.075C847.272 112.375 848.497 111.675 850.297 110.975L866.947 104.525C869.647 103.475 871.772 102.75 873.322 102.35C874.872 101.9 876.247 101.675 877.447 101.675C879.847 101.675 881.647 102.325 882.847 103.625C884.047 104.875 884.647 106.475 884.647 108.425ZM867.097 95.075C861.497 95.075 857.072 93.775 853.822 91.175C850.572 88.575 848.947 85.025 848.947 80.525C848.947 76.075 850.572 72.575 853.822 70.025C857.072 67.475 861.497 66.2 867.097 66.2C872.697 66.2 877.122 67.475 880.372 70.025C883.622 72.575 885.247 76.075 885.247 80.525C885.247 85.025 883.622 88.575 880.372 91.175C877.122 93.775 872.697 95.075 867.097 95.075ZM941.656 101.675C950.156 101.675 957.581 103.3 963.931 106.55C970.281 109.75 975.206 114.25 978.706 120.05C982.256 125.85 984.031 132.6 984.031 140.3C984.031 147.4 982.181 153.825 978.481 159.575C974.781 165.325 969.656 169.9 963.106 173.3C956.606 176.65 949.056 178.325 940.456 178.325C931.956 178.325 924.531 176.7 918.181 173.45C911.831 170.15 906.881 165.6 903.331 159.8C899.831 154 898.081 147.3 898.081 139.7C898.081 132.45 899.931 125.975 903.631 120.275C907.331 114.525 912.431 110 918.931 106.7C925.481 103.35 933.056 101.675 941.656 101.675ZM947.131 167.45C949.031 167 950.481 165.675 951.481 163.475C952.481 161.275 952.931 158.075 952.831 153.875C952.731 149.675 951.981 144.35 950.581 137.9C949.281 131.7 947.806 126.65 946.156 122.75C944.556 118.85 942.806 116.05 940.906 114.35C939.006 112.65 937.031 112.05 934.981 112.55C933.081 113 931.631 114.325 930.631 116.525C929.631 118.725 929.181 121.925 929.281 126.125C929.431 130.275 930.181 135.6 931.531 142.1C932.831 148.25 934.306 153.3 935.956 157.25C937.606 161.15 939.356 163.95 941.206 165.65C943.106 167.3 945.081 167.9 947.131 167.45ZM1030.84 108.425L1030.84 160.475C1030.84 162.475 1030.99 163.875 1031.29 164.675C1031.59 165.475 1032.11 166.075 1032.86 166.475L1034.36 167.3C1036.01 168.25 1036.84 169.625 1036.84 171.425C1036.84 174.625 1034.91 176.225 1031.06 176.225L997.838 176.225C995.838 176.225 994.388 175.825 993.488 175.025C992.588 174.225 992.138 173.125 992.138 171.725C992.138 170.725 992.388 169.85 992.888 169.1C993.388 168.35 994.213 167.725 995.363 167.225L997.013 166.475C997.763 166.125 998.288 165.55 998.588 164.75C998.888 163.9 999.038 162.475 999.038 160.475L999.038 125.225C999.038 123.625 998.813 122.5 998.363 121.85C997.963 121.15 997.338 120.675 996.488 120.425L994.838 119.9C993.788 119.55 993.013 119.05 992.513 118.4C992.063 117.75 991.838 116.925 991.838 115.925C991.838 114.725 992.163 113.775 992.813 113.075C993.463 112.375 994.688 111.675 996.488 110.975L1013.14 104.525C1015.69 103.525 1017.74 102.8 1019.29 102.35C1020.89 101.9 1022.44 101.675 1023.94 101.675C1026.19 101.675 1027.89 102.325 1029.04 103.625C1030.24 104.875 1030.84 106.475 1030.84 108.425ZM1028.14 126.725L1023.64 121.925L1025.89 119.825C1032.94 113.075 1039.06 108.375 1044.26 105.725C1049.46 103.025 1054.24 101.675 1058.59 101.675C1065.29 101.675 1070.69 103.9 1074.79 108.35C1078.89 112.75 1080.94 118.525 1080.94 125.675L1080.94 160.475C1080.94 162.475 1081.09 163.9 1081.39 164.75C1081.69 165.55 1082.21 166.125 1082.96 166.475L1084.61 167.225C1085.76 167.725 1086.59 168.35 1087.09 169.1C1087.59 169.85 1087.84 170.725 1087.84 171.725C1087.84 173.125 1087.39 174.225 1086.49 175.025C1085.59 175.825 1084.14 176.225 1082.14 176.225L1048.91 176.225C1045.06 176.225 1043.14 174.625 1043.14 171.425C1043.14 169.625 1043.96 168.25 1045.61 167.3L1047.11 166.475C1047.86 166.075 1048.39 165.475 1048.69 164.675C1048.99 163.875 1049.14 162.475 1049.14 160.475L1049.14 130.175C1049.14 126.975 1048.39 124.575 1046.89 122.975C1045.44 121.375 1043.39 120.575 1040.74 120.575C1039.09 120.575 1037.36 120.9 1035.56 121.55C1033.76 122.2 1032.16 123.15 1030.76 124.4L1028.14 126.725Z" fill="#83888F" fill-opacity="1.000000" fill-rule="evenodd"/>
			<rect id="Rectangle" width="1111.000000" height="196.000000" fill="url(#paint_linear_0_2121_0)" fill-opacity="1.000000"/>
			<rect id="Rectangle" width="1111.000000" height="196.000000" stroke="#979797" stroke-opacity="0" stroke-width="0.000000"/>
		</g>
	</g>
</svg>
