<svg width="162.309326" height="17.307617" viewBox="0 0 162.309 17.3076" fill="none" xmlns="http://www.w3.org/2000/svg" xmlns:xlink="http://www.w3.org/1999/xlink">
	<desc>
			Created with Pixso.
	</desc>
	<defs/>
	<path id="coffeeroasters" d="M29.4639 16.0889Q28.4507 16.5811 27.0999 16.5811C26.1467 16.5811 25.2931 16.3789 24.5389 15.9746Q24.0823 15.7295 23.7036 15.3965Q23.144 14.9043 22.7546 14.2178C22.3193 13.4512 22.1017 12.5186 22.1017 11.4199Q22.1017 9.94238 22.6898 8.75586Q22.7346 8.66504 22.7827 8.57617Q23.1401 7.91895 23.6447 7.40625L23.6447 7.40625Q24.1017 6.94238 24.6796 6.59668Q24.7416 6.55957 24.8046 6.52441Q25.978 5.87012 27.5164 5.87012Q28.901 5.87012 29.8522 6.28223Q30.8035 6.69434 31.3044 7.39844Q31.5458 7.7373 31.6708 8.11426Q31.8054 8.52051 31.8054 8.97168Q31.8054 9.74121 31.4353 10.2314Q31.3652 10.3242 31.2819 10.4072C30.9329 10.7549 30.4583 10.9277 29.8578 10.9277Q29.0699 10.9277 28.606 10.54Q28.5264 10.4736 28.4564 10.3965Q28.4329 10.3701 28.4106 10.3428Q27.9779 9.81836 27.9779 8.9375L27.9779 8.20508Q27.9779 7.64355 27.7753 7.3584Q27.6878 7.23438 27.5689 7.16406Q27.4124 7.07227 27.2012 7.07227C26.9535 7.07227 26.7302 7.17285 26.5314 7.375C26.3325 7.57715 26.1786 7.88086 26.0698 8.28516Q25.9066 8.8916 25.9066 9.78418Q25.9066 11.0654 26.2837 11.9355C26.5351 12.5146 26.8785 12.9502 27.3137 13.2393Q27.5244 13.3799 27.7539 13.4746Q28.2355 13.6748 28.7997 13.6748Q29.6327 13.6748 30.1956 13.4287C30.5708 13.2646 30.8597 12.9883 31.0624 12.5986C31.1749 12.4922 31.2631 12.4238 31.3269 12.3926C31.3907 12.3623 31.4526 12.3467 31.5126 12.3467C31.5877 12.3545 31.6496 12.3906 31.6984 12.4561C31.7407 12.5117 31.7618 12.5957 31.7618 12.7061C31.7618 12.7227 31.7613 12.7412 31.7603 12.7588C31.7003 13.5068 31.4714 14.167 31.0736 14.7383C30.6758 15.3105 30.1393 15.7607 29.4639 16.0889ZM40.9067 15.8604C40.0624 16.3252 39.0812 16.5586 37.963 16.5586Q36.3307 16.5586 35.098 15.877C34.2763 15.4238 33.6365 14.7959 33.1787 13.9951Q33.1588 13.96 33.1395 13.9248Q32.492 12.748 32.492 11.2139Q32.492 10.082 32.8969 9.12012Q33.0321 8.79883 33.2125 8.49609Q33.4781 8.05176 33.8187 7.67383Q34.4019 7.02734 35.205 6.58008Q35.2372 6.56152 35.2698 6.54395Q36.519 5.87012 38.1318 5.87012C39.2275 5.87012 40.1844 6.09961 41.0024 6.55664C41.8204 7.01465 42.4583 7.64746 42.9161 8.45605Q42.9312 8.4834 42.946 8.50977Q43.6028 9.7041 43.6028 11.2598C43.6028 12.2666 43.3646 13.1689 42.888 13.9658C42.4114 14.7637 41.751 15.3945 40.9067 15.8604ZM38.8185 15.3682C38.5859 15.4141 38.3589 15.3105 38.1375 15.0596C37.9161 14.8076 37.7059 14.3838 37.5071 13.7891Q37.2087 12.8965 36.9386 11.4434Q36.6797 9.99023 36.6459 9.05176Q36.6403 8.89551 36.6403 8.75098C36.6403 8.27246 36.6872 7.89941 36.781 7.63281Q36.9229 7.22852 37.192 7.10742Q37.2431 7.08496 37.2988 7.07227C37.5315 7.02637 37.7585 7.12891 37.9799 7.38086Q38.312 7.75879 38.6159 8.65137C38.8185 9.24609 39.0099 10.0283 39.19 10.9971C39.3701 11.9658 39.4695 12.7646 39.4883 13.3945C39.491 13.4814 39.4922 13.5664 39.4922 13.6475C39.4922 14.1523 39.4421 14.543 39.342 14.8184C39.2256 15.1396 39.0512 15.3223 38.8185 15.3682ZM51.4982 16.2197Q51.366 16.3525 51.1001 16.3525L44.8861 16.3525C44.736 16.3525 44.6141 16.3086 44.5203 16.2207C44.4265 16.1328 44.3796 16.0088 44.3796 15.8486Q44.3796 15.6426 44.4752 15.5166C44.5391 15.4326 44.6385 15.3643 44.7736 15.3105L45.2576 15.1621C45.3777 15.124 45.4715 15.0518 45.5391 14.9443C45.6066 14.8379 45.6404 14.6855 45.6404 14.4873L45.6404 7.87305C45.6404 7.76562 45.6141 7.67676 45.5616 7.60352C45.509 7.53125 45.4114 7.46484 45.2689 7.40332L44.616 7.18652C44.4434 7.10254 44.3195 7.0127 44.2444 6.91699C44.1694 6.82227 44.1319 6.70605 44.1319 6.56836C44.1319 6.43066 44.1788 6.31836 44.2726 6.23047L44.3094 6.2002C44.3994 6.13281 44.5165 6.09961 44.661 6.09961L45.6488 6.09961L45.6411 6.03223C45.6199 5.89844 45.5672 5.77051 45.4827 5.64746C45.3702 5.4834 45.2426 5.29785 45.1 5.0918Q44.8861 4.7832 44.7173 4.35449Q44.5484 3.9248 44.5484 3.2959Q44.5484 2.32227 44.9753 1.60254Q45.2061 1.21387 45.5616 0.898438C46.237 0.299805 47.1976 0 48.4434 0C49.2464 0 49.9124 0.129883 50.4415 0.388672C50.9706 0.648438 51.3665 0.993164 51.6292 1.4248C51.8918 1.85547 52.0231 2.32715 52.0231 2.83789Q52.0231 3.71191 51.5863 4.16406Q51.5714 4.17871 51.556 4.19434C51.2445 4.49512 50.8449 4.64551 50.3571 4.64551Q49.807 4.64551 49.4021 4.40332Q49.2104 4.28906 49.0513 4.11914C48.7211 3.76855 48.556 3.30371 48.556 2.72363L48.556 1.70508Q48.556 1.30469 48.3984 1.11523Q48.3762 1.08887 48.3506 1.06641Q48.1948 0.926758 47.9143 0.926758C47.6366 0.926758 47.4265 1.02246 47.2839 1.21289C47.1413 1.40332 47.07 1.67871 47.07 2.03711Q47.07 2.33789 47.1459 2.61816Q47.2087 2.84961 47.3233 3.06641C47.4921 3.38672 47.7004 3.68652 47.9481 3.96484C48.1957 4.24316 48.4434 4.51074 48.691 4.76562C48.9387 5.02148 49.147 5.27344 49.3158 5.52148L49.364 5.5957C49.4551 5.74414 49.5159 5.8916 49.5463 6.03906L49.5566 6.09961L51.2239 6.09961C51.3965 6.09961 51.5297 6.13574 51.6235 6.20801C51.7173 6.28027 51.7642 6.39258 51.7642 6.5459C51.7642 6.77441 51.6667 6.96094 51.4716 7.10645Q51.1789 7.32324 50.5485 7.32324L49.7492 7.32324L49.7492 14.4531C49.7492 14.666 49.7811 14.8301 49.8449 14.9443C49.9087 15.0596 50.0119 15.1279 50.1545 15.1504L51.1226 15.2998C51.2952 15.3223 51.4228 15.3779 51.5053 15.4658C51.5879 15.5527 51.6292 15.6729 51.6292 15.8262Q51.6292 16.0879 51.4982 16.2197ZM59.4866 15.8262C59.4866 16.1768 59.3103 16.3525 58.9575 16.3525L52.7436 16.3525C52.5935 16.3525 52.4716 16.3086 52.3777 16.2207C52.2839 16.1328 52.2371 16.0088 52.2371 15.8486Q52.2371 15.6426 52.3327 15.5166C52.3965 15.4326 52.496 15.3643 52.631 15.3105L53.1151 15.1621C53.2352 15.124 53.329 15.0518 53.3965 14.9443Q53.4979 14.7842 53.4979 14.4873L53.4979 7.87305C53.4979 7.76562 53.4716 7.67676 53.4191 7.60352C53.3665 7.53125 53.2689 7.46484 53.1263 7.40332L52.4734 7.18652C52.3008 7.10254 52.177 7.0127 52.1019 6.91699C52.0269 6.82227 51.9894 6.70605 51.9894 6.56836C51.9894 6.43066 52.0363 6.31836 52.1301 6.23047L52.1669 6.2002C52.2568 6.13281 52.374 6.09961 52.5185 6.09961L53.5063 6.09961L53.4985 6.03223C53.4774 5.89844 53.4247 5.77051 53.3402 5.64746C53.2277 5.4834 53.1001 5.29785 52.9575 5.0918Q52.7436 4.7832 52.5748 4.35449Q52.4059 3.9248 52.4059 3.2959Q52.4059 2.32227 52.8328 1.60254Q53.0635 1.21387 53.4191 0.898438C54.0945 0.299805 55.0551 0 56.3008 0C57.1039 0 57.7699 0.129883 58.299 0.388672C58.8281 0.648438 59.2239 0.993164 59.4866 1.4248Q59.6667 1.71973 59.7645 2.04102Q59.8806 2.42188 59.8806 2.83789Q59.8806 3.71191 59.4438 4.16406Q59.4289 4.17871 59.4135 4.19434Q59.276 4.32715 59.1156 4.4209Q58.731 4.64551 58.2146 4.64551Q57.6645 4.64551 57.2596 4.40332Q57.0679 4.28906 56.9088 4.11914C56.5786 3.76855 56.4135 3.30371 56.4135 2.72363L56.4135 1.70508Q56.4135 1.30469 56.2559 1.11523C56.1508 0.990234 55.9894 0.926758 55.7718 0.926758C55.4941 0.926758 55.284 1.02246 55.1414 1.21289C54.9988 1.40332 54.9275 1.67871 54.9275 2.03711C54.9275 2.40332 55.0119 2.74609 55.1808 3.06641C55.3496 3.38672 55.5579 3.68652 55.8055 3.96484C56.0532 4.24316 56.3008 4.51074 56.5485 4.76562C56.7962 5.02148 57.0045 5.27344 57.1733 5.52148L57.2214 5.5957C57.3126 5.74414 57.3734 5.8916 57.4038 6.03906L57.4141 6.09961L59.0814 6.09961Q59.3403 6.09961 59.481 6.20801C59.5748 6.28027 59.6217 6.39258 59.6217 6.5459C59.6217 6.77441 59.5242 6.96094 59.329 7.10645C59.1339 7.25098 58.8262 7.32324 58.4059 7.32324L57.6067 7.32324L57.6067 14.4531C57.6067 14.666 57.6386 14.8301 57.7024 14.9443C57.7662 15.0596 57.8694 15.1279 58.012 15.1504L58.98 15.2998C59.1526 15.3223 59.2803 15.3779 59.3628 15.4658C59.4454 15.5527 59.4866 15.6729 59.4866 15.8262ZM67.7719 16.0205C67.0439 16.3945 66.2034 16.5811 65.2503 16.5811C64.1996 16.5811 63.2766 16.3613 62.481 15.9229C61.6855 15.4844 61.0645 14.8701 60.618 14.0811Q60.6086 14.0645 60.5995 14.0479Q59.9482 12.875 59.9482 11.3398C59.9482 10.249 60.1639 9.29395 60.5955 8.47363Q60.8961 7.90234 61.322 7.44824Q61.8127 6.9248 62.4698 6.55664Q63.6968 5.87012 65.4191 5.87012C66.3948 5.87012 67.2353 6.0625 67.9407 6.44824C68.6462 6.83301 69.1884 7.35645 69.5674 8.01562C69.9464 8.67578 70.1359 9.41016 70.1359 10.2188C70.1359 10.5693 70.0421 10.8457 69.8544 11.0479L69.8097 11.0928C69.6248 11.2656 69.3695 11.3516 69.0439 11.3516L63.8979 11.3516L63.9089 11.4043C64.0454 12.0322 64.2787 12.5361 64.6086 12.9131C65.1715 13.5586 65.9219 13.8809 66.86 13.8809C67.4604 13.8809 67.9914 13.7432 68.4529 13.4688C68.9145 13.1943 69.2241 12.8125 69.3817 12.3242C69.4717 12.2246 69.5524 12.1582 69.6237 12.124C69.6949 12.0898 69.7569 12.0723 69.8094 12.0723C69.8845 12.0723 69.9482 12.1025 70.0008 12.1641C70.0533 12.2246 70.0796 12.3281 70.0796 12.4727Q70.0796 13.0586 69.9136 13.5938Q69.7619 14.082 69.4717 14.5273C69.0665 15.1484 68.4998 15.6465 67.7719 16.0205ZM63.7804 10.4346C63.7697 10.2588 63.7643 10.0762 63.7643 9.88672C63.7643 9.16992 63.8169 8.60547 63.9219 8.19336Q64.0795 7.5752 64.3272 7.31738C64.4923 7.14648 64.6761 7.06055 64.8788 7.06055Q64.8959 7.06055 64.913 7.06152Q65.2877 7.08984 65.6161 7.73535C65.845 8.18555 65.9595 8.93359 65.9595 9.97852Q65.9595 10.2461 65.8263 10.3652Q65.7208 10.459 65.5317 10.459L63.7819 10.459L63.7804 10.4346ZM78.5337 16.0205C77.8057 16.3945 76.9652 16.5811 76.0121 16.5811C74.9614 16.5811 74.0383 16.3613 73.2429 15.9229C72.4473 15.4844 71.8264 14.8701 71.3798 14.0811Q71.3705 14.0645 71.3613 14.0479Q70.71 12.875 70.71 11.3398C70.71 10.249 70.9258 9.29395 71.3573 8.47363Q71.658 7.90234 72.0837 7.44824Q72.5746 6.9248 73.2316 6.55664Q74.4586 5.87012 76.181 5.87012C77.1566 5.87012 77.9971 6.0625 78.7026 6.44824C79.408 6.83301 79.9503 7.35645 80.3292 8.01562C80.7082 8.67578 80.8977 9.41016 80.8977 10.2188C80.8977 10.5693 80.8039 10.8457 80.6163 11.0479L80.5715 11.0928C80.3866 11.2656 80.1313 11.3516 79.8058 11.3516L74.6597 11.3516L74.6707 11.4043C74.8073 12.0322 75.0405 12.5361 75.3705 12.9131C75.9333 13.5586 76.6838 13.8809 77.6219 13.8809C78.2223 13.8809 78.7532 13.7432 79.2148 13.4688C79.6763 13.1943 79.9859 12.8125 80.1435 12.3242C80.2335 12.2246 80.3142 12.1582 80.3855 12.124C80.4568 12.0898 80.5187 12.0723 80.5712 12.0723C80.6463 12.0723 80.7101 12.1025 80.7626 12.1641C80.8152 12.2246 80.8414 12.3281 80.8414 12.4727Q80.8414 13.0586 80.6754 13.5938Q80.5237 14.082 80.2335 14.5273C79.8282 15.1484 79.2617 15.6465 78.5337 16.0205ZM74.5422 10.4346C74.5315 10.2588 74.5262 10.0762 74.5262 9.88672C74.5262 9.16992 74.5787 8.60547 74.6838 8.19336Q74.8414 7.5752 75.0891 7.31738C75.2542 7.14648 75.438 7.06055 75.6406 7.06055Q75.6578 7.06055 75.6749 7.06152Q76.0496 7.08984 76.378 7.73535C76.6069 8.18555 76.7213 8.93359 76.7213 9.97852Q76.7213 10.2461 76.5881 10.3652Q76.4826 10.459 76.2935 10.459L74.5437 10.459L74.5422 10.4346ZM88.1304 16.209C88.0366 16.3047 87.8997 16.3525 87.7195 16.3525L82.0909 16.3525C81.9258 16.3525 81.7964 16.3066 81.7026 16.2148C81.6088 16.123 81.5619 15.9971 81.5619 15.8369C81.5619 15.7148 81.59 15.6143 81.6463 15.5342C81.7026 15.4541 81.7795 15.3799 81.8771 15.3105L82.136 15.208C82.2335 15.1621 82.3011 15.0898 82.3386 14.9902C82.3762 14.8916 82.3949 14.7275 82.3949 14.498L82.3949 8.68555C82.3949 8.50195 82.3743 8.37109 82.333 8.29004C82.2917 8.20996 82.2223 8.14746 82.1248 8.10156L81.832 8.06738C81.727 8.00684 81.65 7.94141 81.6013 7.87305C81.5525 7.80371 81.5281 7.7168 81.5281 7.60938C81.5281 7.4873 81.5656 7.37891 81.6407 7.2832C81.7157 7.18848 81.8433 7.10645 82.0234 7.03711L85.2205 6.11035C85.4081 6.03418 85.5657 5.98047 85.6932 5.9502Q85.8846 5.9043 86.0197 5.9043C86.1473 5.9043 86.243 5.9502 86.3068 6.04199L86.3273 6.0752C86.3799 6.1709 86.4162 6.32422 86.4362 6.53418L86.5219 8.3125L86.5414 8.24609C86.5795 8.12305 86.6213 8.00391 86.667 7.88965C86.9409 7.20703 87.303 6.7002 87.7533 6.36816Q88.1747 6.05762 88.6442 5.94043Q88.9274 5.87012 89.228 5.87012Q89.8998 5.87012 90.3547 6.18457Q90.5554 6.32324 90.7139 6.52246Q91.2318 7.1748 91.2318 8.50195C91.2318 9.37988 91.0516 10.0244 90.6914 10.4365C90.3312 10.8477 89.8659 11.0537 89.2955 11.0537C88.7402 11.0537 88.3293 10.9131 88.0629 10.6309C87.7964 10.3486 87.6558 9.94824 87.6407 9.42871L87.6295 8.97168C87.6219 8.7959 87.5882 8.6582 87.5281 8.55957C87.4681 8.45996 87.3705 8.41113 87.2355 8.41113C87.1004 8.41113 86.9822 8.48145 86.8809 8.62207C86.7795 8.76367 86.7026 8.97949 86.6501 9.26855C86.5975 9.55859 86.5713 9.92871 86.5713 10.3789L86.5713 14.4072C86.5713 14.6201 86.6051 14.79 86.6726 14.916C86.7402 15.042 86.8452 15.1201 86.9878 15.1504L87.8321 15.3223C87.9897 15.3447 88.1023 15.4043 88.1698 15.5C88.2374 15.5947 88.2711 15.708 88.2711 15.8369C88.2711 15.9902 88.2242 16.1143 88.1304 16.209ZM100.074 15.8604C99.23 16.3252 98.2487 16.5586 97.1305 16.5586C96.0423 16.5586 95.0873 16.3311 94.2656 15.877C93.4438 15.4238 92.804 14.7959 92.3462 13.9951C91.8884 13.1943 91.6595 12.2666 91.6595 11.2139C91.6595 10.207 91.8997 9.30176 92.38 8.49609Q92.6456 8.05176 92.9862 7.67383Q93.5695 7.02734 94.3725 6.58008C95.2205 6.10645 96.1962 5.87012 97.2994 5.87012Q98.9429 5.87012 100.17 6.55664C100.988 7.01465 101.626 7.64746 102.084 8.45605C102.541 9.26465 102.77 10.1992 102.77 11.2598C102.77 12.2666 102.532 13.1689 102.055 13.9658C101.579 14.7637 100.919 15.3945 100.074 15.8604ZM97.986 15.3682C97.7534 15.4141 97.5264 15.3105 97.305 15.0596C97.0836 14.8076 96.8735 14.3838 96.6746 13.7891C96.4757 13.1943 96.2862 12.4121 96.1061 11.4434C95.9335 10.4746 95.8359 9.67676 95.8134 9.05176Q95.8078 8.89551 95.8078 8.75098C95.8078 8.27246 95.8547 7.89941 95.9485 7.63281Q96.0904 7.22852 96.3596 7.10742Q96.4106 7.08496 96.4663 7.07227C96.699 7.02637 96.926 7.12891 97.1474 7.38086C97.3688 7.63281 97.5808 8.05566 97.7834 8.65137C97.986 9.24609 98.1774 10.0283 98.3575 10.9971C98.5377 11.9658 98.6371 12.7646 98.6558 13.3945C98.6584 13.4814 98.6597 13.5664 98.6597 13.6475C98.6597 14.1523 98.6097 14.543 98.5095 14.8184C98.3932 15.1396 98.2187 15.3223 97.986 15.3682ZM113.251 16.2324C112.845 16.4648 112.328 16.5811 111.697 16.5811C110.939 16.5811 110.352 16.4189 109.935 16.0947L109.864 16.0371C109.634 15.8408 109.475 15.6191 109.389 15.3721L109.372 15.3203L109.356 15.3408Q108.945 15.8506 108.286 16.1631C107.701 16.4414 107.071 16.5811 106.395 16.5811C105.495 16.5811 104.772 16.3408 104.228 15.8604C103.684 15.3799 103.412 14.7656 103.412 14.0176C103.412 13.0342 103.808 12.2666 104.6 11.7178C105.391 11.1689 106.594 10.8936 108.208 10.8936L108.329 10.8955C108.567 10.9004 108.777 10.9199 108.958 10.9551L109.018 10.9678L109.018 7.63281C109.018 7.36523 108.956 7.1543 108.832 6.99707C108.708 6.84082 108.542 6.7627 108.331 6.7627C108.136 6.7627 107.973 6.82227 107.842 6.94043Q107.797 6.98047 107.762 7.02832Q107.645 7.19043 107.645 7.43848L107.645 8.30762C107.645 8.87207 107.457 9.33203 107.082 9.68652C106.707 10.041 106.193 10.2188 105.54 10.2188Q104.74 10.2188 104.318 9.83496C104.037 9.58008 103.896 9.20801 103.896 8.71973C103.896 8.26172 104.086 7.81348 104.465 7.375C104.844 6.93652 105.41 6.57617 106.164 6.29395C106.919 6.01172 107.859 5.87012 108.984 5.87012C110.433 5.87012 111.496 6.14648 112.176 6.7002C112.855 7.25293 113.194 8.0332 113.194 9.04004L113.194 14.0977C113.194 14.2432 113.226 14.3594 113.29 14.4473C113.354 14.5342 113.45 14.5781 113.577 14.5781C113.667 14.5781 113.752 14.5518 113.83 14.498C113.909 14.4453 113.967 14.3496 114.005 14.2119C114.027 14.1816 114.054 14.1592 114.084 14.1436C114.114 14.1279 114.148 14.1211 114.185 14.1211Q114.235 14.1211 114.276 14.1387Q114.338 14.167 114.382 14.2354C114.431 14.3115 114.455 14.4072 114.455 14.5215C114.455 14.7881 114.356 15.082 114.157 15.4023C113.958 15.7227 113.656 15.999 113.251 16.2324ZM108.545 14.7959C108.245 14.7959 108.003 14.6719 107.819 14.4238C107.635 14.1758 107.543 13.7969 107.543 13.2852C107.543 12.751 107.632 12.3467 107.808 12.0723C107.984 11.7979 108.219 11.6602 108.511 11.6602C108.684 11.6602 108.834 11.6777 108.962 11.7119L109.018 11.7295L109.018 14.666L108.981 14.6865C108.861 14.749 108.738 14.7852 108.61 14.7939L108.545 14.7959ZM122.707 15.6885Q121.637 16.6152 119.634 16.6152C119.183 16.6152 118.81 16.5732 118.513 16.4893C118.217 16.4053 117.977 16.3213 117.793 16.2373C117.609 16.1543 117.461 16.1123 117.348 16.1123C117.236 16.1123 117.088 16.1543 116.904 16.2373L116.352 16.4893C116.168 16.5732 116.012 16.6152 115.885 16.6152C115.772 16.6152 115.667 16.5771 115.57 16.501C115.472 16.4248 115.397 16.2725 115.345 16.043L114.996 13.7656C114.955 13.5918 114.935 13.4346 114.935 13.2939C114.935 13.1992 114.944 13.1133 114.962 13.0342C115.007 12.835 115.108 12.7061 115.266 12.6445C115.431 12.5684 115.594 12.5645 115.755 12.6328C115.917 12.7021 116.061 12.8242 116.189 12.999C116.617 13.6631 117.003 14.1855 117.348 14.5674Q117.866 15.1396 118.356 15.374C118.682 15.5303 119.026 15.6084 119.386 15.6084C119.769 15.6084 120.054 15.5166 120.241 15.334C120.429 15.1504 120.523 14.918 120.523 14.6357C120.523 14.4219 120.468 14.2275 120.36 14.0518C120.251 13.877 120.052 13.7148 119.763 13.5654C119.474 13.417 119.059 13.2705 118.519 13.125C117.686 12.9121 116.996 12.6328 116.448 12.29C115.9 11.9463 115.493 11.5342 115.226 11.0537C114.96 10.5732 114.827 10.0127 114.827 9.37207Q114.827 8.42383 115.234 7.70605Q115.293 7.60059 115.361 7.50098Q115.496 7.30371 115.656 7.12891Q116.13 6.61035 116.825 6.29395C117.444 6.01172 118.14 5.87012 118.913 5.87012Q119.611 5.87012 120.05 6.00781C120.343 6.09961 120.57 6.19043 120.731 6.28223C120.892 6.37402 121.014 6.41992 121.097 6.41992Q121.232 6.41992 121.497 6.28809C121.673 6.2002 121.851 6.11426 122.031 6.03027C122.211 5.94629 122.362 5.9043 122.482 5.9043Q122.611 5.9043 122.708 5.95996Q122.763 5.99219 122.808 6.04199C122.891 6.13379 122.947 6.29004 122.977 6.51074L123.27 8.61621C123.3 8.79492 123.316 8.94824 123.316 9.0791C123.316 9.17188 123.308 9.25195 123.292 9.32031C123.255 9.48438 123.157 9.58887 122.999 9.63477C122.872 9.66602 122.737 9.64062 122.594 9.56055C122.452 9.48047 122.309 9.35254 122.166 9.17773C121.619 8.3457 121.118 7.75879 120.664 7.41504C120.209 7.07227 119.727 6.90039 119.217 6.90039C118.849 6.90039 118.572 6.98047 118.384 7.14062C118.196 7.30078 118.103 7.51074 118.103 7.76953C118.103 7.94531 118.144 8.10938 118.226 8.26172C118.309 8.41406 118.461 8.55762 118.682 8.69141Q119.014 8.8916 119.622 9.08594Q121.255 9.58887 122.155 10.1553C122.755 10.5332 123.176 10.9658 123.416 11.4541C123.656 11.9424 123.776 12.5107 123.776 13.1592Q123.776 14.2432 123.287 15.0176Q123.053 15.3887 122.707 15.6885ZM130.305 16.1865C129.81 16.4492 129.225 16.5811 128.549 16.5811C127.408 16.5811 126.551 16.3027 125.977 15.7461C125.403 15.1885 125.116 14.3115 125.116 13.1143L125.116 7.94141C125.116 7.78125 125.101 7.65918 125.071 7.5752C125.041 7.49121 124.966 7.42285 124.846 7.36914L124.316 7.19727C124.189 7.13672 124.106 7.0625 124.069 6.97461C124.031 6.88672 124.013 6.77832 124.013 6.64844C124.013 6.48828 124.069 6.35645 124.181 6.25391C124.294 6.15039 124.433 6.09961 124.598 6.09961L125.15 6.09961C125.217 6.09961 125.288 6.07227 125.363 6.01953C125.438 5.96582 125.54 5.8584 125.667 5.69824L127.75 3.94824C127.9 3.76465 128.05 3.62598 128.2 3.53027C128.35 3.43457 128.5 3.38672 128.65 3.38672Q128.847 3.38672 128.979 3.47949Q129.021 3.50879 129.056 3.54688L129.086 3.58496C129.164 3.69238 129.202 3.84766 129.202 4.05078L129.202 6.09961L131.555 6.09961C131.72 6.09961 131.848 6.13574 131.938 6.20801C132.028 6.28027 132.073 6.39258 132.073 6.5459C132.073 6.75879 131.979 6.94238 131.791 7.09473L131.749 7.12598C131.56 7.25781 131.274 7.32324 130.891 7.32324L129.202 7.32324L129.202 12.542Q129.202 13.3994 129.489 13.8115C129.68 14.0869 129.96 14.2236 130.328 14.2236C130.485 14.2236 130.632 14.1895 130.767 14.1211C130.902 14.0518 131.024 13.9629 131.133 13.8516C131.242 13.7412 131.345 13.6172 131.442 13.4795C131.54 13.3428 131.634 13.2051 131.724 13.0684Q131.781 13.0449 131.831 13.0557Q131.879 13.0654 131.921 13.1084C131.97 13.1582 131.995 13.2549 131.995 13.3975Q131.995 13.4258 131.994 13.457C131.941 14.0752 131.771 14.6182 131.482 15.0879C131.193 15.5566 130.801 15.9229 130.305 16.1865ZM140.2 16.0205C139.472 16.3945 138.632 16.5811 137.679 16.5811C136.628 16.5811 135.705 16.3613 134.909 15.9229C134.114 15.4844 133.493 14.8701 133.046 14.0811Q133.037 14.0645 133.028 14.0479Q132.377 12.875 132.377 11.3398C132.377 10.249 132.592 9.29395 133.024 8.47363Q133.325 7.90234 133.75 7.44824Q134.241 6.9248 134.898 6.55664Q136.125 5.87012 137.848 5.87012C138.823 5.87012 139.664 6.0625 140.369 6.44824C141.075 6.83301 141.617 7.35645 141.996 8.01562C142.375 8.67578 142.564 9.41016 142.564 10.2188C142.564 10.5693 142.47 10.8457 142.283 11.0479L142.238 11.0928C142.053 11.2656 141.798 11.3516 141.472 11.3516L136.326 11.3516L136.337 11.4043C136.474 12.0322 136.707 12.5361 137.037 12.9131C137.6 13.5586 138.35 13.8809 139.288 13.8809C139.889 13.8809 140.42 13.7432 140.881 13.4688C141.343 13.1943 141.652 12.8125 141.81 12.3242C141.9 12.2246 141.981 12.1582 142.052 12.124C142.123 12.0898 142.185 12.0723 142.238 12.0723C142.313 12.0723 142.377 12.1025 142.429 12.1641C142.482 12.2246 142.508 12.3281 142.508 12.4727Q142.508 13.0586 142.342 13.5938Q142.19 14.082 141.9 14.5273C141.495 15.1484 140.928 15.6465 140.2 16.0205ZM136.209 10.4346C136.198 10.2588 136.193 10.0762 136.193 9.88672C136.193 9.16992 136.245 8.60547 136.35 8.19336Q136.508 7.5752 136.756 7.31738C136.921 7.14648 137.105 7.06055 137.307 7.06055Q137.324 7.06055 137.341 7.06152Q137.716 7.08984 138.045 7.73535Q138.388 8.41113 138.388 9.97852C138.388 10.2988 138.245 10.459 137.96 10.459L136.21 10.459L136.209 10.4346ZM149.797 16.209C149.703 16.3047 149.566 16.3525 149.386 16.3525L143.758 16.3525C143.592 16.3525 143.463 16.3066 143.369 16.2148C143.275 16.123 143.228 15.9971 143.228 15.8369C143.228 15.7148 143.257 15.6143 143.313 15.5342C143.369 15.4541 143.446 15.3799 143.544 15.3105L143.803 15.208C143.9 15.1621 143.968 15.0898 144.005 14.9902Q144.062 14.8418 144.062 14.498L144.062 8.68555C144.062 8.50195 144.041 8.37109 144 8.29004Q143.994 8.27832 143.987 8.26758Q143.923 8.16406 143.791 8.10156L143.499 8.06738C143.394 8.00684 143.317 7.94141 143.268 7.87305C143.219 7.80371 143.195 7.7168 143.195 7.60938C143.195 7.4873 143.232 7.37891 143.307 7.2832C143.382 7.18848 143.51 7.10645 143.69 7.03711L146.887 6.11035C147.075 6.03418 147.232 5.98047 147.36 5.9502C147.487 5.91992 147.596 5.9043 147.686 5.9043C147.814 5.9043 147.91 5.9502 147.973 6.04199L147.994 6.0752C148.046 6.1709 148.083 6.32422 148.103 6.53418L148.188 8.3125L148.208 8.24609C148.246 8.12305 148.288 8.00391 148.334 7.88965C148.607 7.20703 148.97 6.7002 149.42 6.36816Q149.841 6.05762 150.311 5.94043Q150.594 5.87012 150.895 5.87012Q151.566 5.87012 152.021 6.18457Q152.222 6.32324 152.38 6.52246Q152.898 7.1748 152.898 8.50195Q152.898 9.81836 152.358 10.4365C151.998 10.8477 151.532 11.0537 150.962 11.0537C150.407 11.0537 149.996 10.9131 149.729 10.6309C149.463 10.3486 149.322 9.94824 149.307 9.42871L149.296 8.97168C149.289 8.7959 149.255 8.6582 149.195 8.55957C149.135 8.45996 149.037 8.41113 148.902 8.41113C148.767 8.41113 148.649 8.48145 148.547 8.62207C148.446 8.76367 148.369 8.97949 148.317 9.26855C148.264 9.55859 148.238 9.92871 148.238 10.3789L148.238 14.4072C148.238 14.6201 148.272 14.79 148.339 14.916C148.407 15.042 148.512 15.1201 148.654 15.1504L149.499 15.3223C149.656 15.3447 149.769 15.4043 149.836 15.5C149.904 15.5947 149.938 15.708 149.938 15.8369C149.938 15.9902 149.891 16.1143 149.797 16.209ZM161.24 15.6885Q160.17 16.6152 158.167 16.6152C157.716 16.6152 157.343 16.5732 157.047 16.4893C156.75 16.4053 156.51 16.3213 156.326 16.2373C156.142 16.1543 155.994 16.1123 155.881 16.1123C155.769 16.1123 155.621 16.1543 155.437 16.2373L154.885 16.4893C154.701 16.5732 154.546 16.6152 154.418 16.6152C154.305 16.6152 154.2 16.5771 154.103 16.501C154.005 16.4248 153.93 16.2725 153.878 16.043L153.529 13.7656C153.488 13.5918 153.468 13.4346 153.468 13.2939C153.468 13.1992 153.477 13.1133 153.495 13.0342C153.54 12.835 153.641 12.7061 153.799 12.6445C153.964 12.5684 154.127 12.5645 154.289 12.6328C154.45 12.7021 154.594 12.8242 154.722 12.999C155.15 13.6631 155.536 14.1855 155.881 14.5674C156.227 14.9482 156.563 15.2178 156.889 15.374C157.215 15.5303 157.559 15.6084 157.919 15.6084C158.302 15.6084 158.587 15.5166 158.775 15.334C158.962 15.1504 159.056 14.918 159.056 14.6357C159.056 14.4219 159.002 14.2275 158.893 14.0518C158.784 13.877 158.585 13.7148 158.296 13.5654C158.007 13.417 157.593 13.2705 157.052 13.125C156.219 12.9121 155.529 12.6328 154.981 12.29Q154.159 11.7754 153.76 11.0537C153.493 10.5732 153.36 10.0127 153.36 9.37207Q153.36 8.42383 153.767 7.70605Q153.826 7.60059 153.895 7.50098Q154.029 7.30371 154.189 7.12891Q154.663 6.61035 155.358 6.29395C155.977 6.01172 156.673 5.87012 157.446 5.87012C157.911 5.87012 158.291 5.91602 158.583 6.00781C158.876 6.09961 159.103 6.19043 159.264 6.28223C159.426 6.37402 159.548 6.41992 159.63 6.41992C159.72 6.41992 159.853 6.37598 160.03 6.28809C160.206 6.2002 160.384 6.11426 160.564 6.03027C160.745 5.94629 160.895 5.9043 161.015 5.9043C161.15 5.9043 161.259 5.9502 161.341 6.04199C161.424 6.13379 161.48 6.29004 161.51 6.51074L161.803 8.61621C161.833 8.79492 161.849 8.94824 161.849 9.07812C161.849 9.17188 161.841 9.25195 161.825 9.32031C161.788 9.48438 161.69 9.58887 161.533 9.63477C161.405 9.66602 161.27 9.64062 161.127 9.56055C160.985 9.48047 160.842 9.35254 160.7 9.17773C160.152 8.3457 159.651 7.75879 159.197 7.41504Q158.677 7.02246 158.109 6.92871Q157.932 6.90039 157.75 6.90039Q157.199 6.90039 156.917 7.14062C156.729 7.30078 156.636 7.51074 156.636 7.76953Q156.636 7.91406 156.673 8.04785Q156.703 8.1582 156.76 8.26172C156.842 8.41406 156.994 8.55762 157.215 8.69141C157.437 8.82422 157.75 8.95605 158.155 9.08594C159.244 9.42188 160.088 9.77832 160.688 10.1553C161.289 10.5332 161.709 10.9658 161.949 11.4541C162.189 11.9424 162.309 12.5107 162.309 13.1592Q162.309 14.2432 161.82 15.0176Q161.586 15.3887 161.24 15.6885Z" clip-rule="evenodd" fill="#333D4B" fill-opacity="1.000000" fill-rule="evenodd"/>
	<path id="Combined Shape" d="M9.31677 2.77148C6.88947 0.339844 3.29144 -0.00976562 1.29614 1.99219C-0.700256 3.99316 -0.351074 7.59961 2.07208 10.0322C2.71857 10.6807 3.46344 11.1758 4.24976 11.5303C4.50769 10.0283 5.24744 8.58398 6.37042 7.39746C5.99854 7.26465 5.61725 7.15234 5.21942 7.04395C2.86359 6.39551 1.69293 4.42578 1.41943 2.11621C2.08453 2.91797 2.57452 3.83496 3.38885 4.50684C4.25702 5.22266 5.2132 5.48242 6.2627 5.78809C6.73822 5.92578 7.15155 6.13086 7.53076 6.36914C8.52734 5.63965 9.65143 5.15332 10.8117 4.95312C10.4584 4.16504 9.96326 3.41895 9.31677 2.77148ZM5.21222 12.1074C5.36658 10.6025 6.09387 9.13184 7.25934 7.96289C9.68665 5.53223 13.2847 5.18066 15.28 7.18457C17.2764 9.18555 16.9283 12.792 14.502 15.2246C13.3365 16.3926 11.8685 17.1211 10.3673 17.2773C10.1674 17.2969 9.96948 17.3076 9.77576 17.3076C8.48492 17.3076 7.33185 16.8535 6.48236 16.002C5.50433 15.0225 5.05267 13.6396 5.21222 12.1074ZM11.3557 12.2363C10.4191 12.4932 9.55823 12.7344 8.76257 13.3428C7.85297 14.0391 7.32458 15.0117 6.60461 15.8789C6.86774 13.6055 8.00732 11.6523 10.3124 10.9814C11.3629 10.6758 12.3181 10.415 13.1863 9.69922C14.0016 9.02734 14.4916 8.11133 15.1557 7.30859C14.8812 9.61816 13.7115 11.5889 11.3557 12.2363Z" clip-rule="evenodd" fill="#0E8784" fill-opacity="1.000000" fill-rule="evenodd"/>
</svg>
