<svg width="93.489746" height="53.281250" viewBox="0 0 93.4897 53.2812" fill="none" xmlns="http://www.w3.org/2000/svg" xmlns:xlink="http://www.w3.org/1999/xlink">
	<desc>
			Created with Pixso.
	</desc>
	<defs/>
	<path id="03" d="M24.336 0.000495911C29.424 0.000495911 33.744 1.0325 37.296 3.0965C40.848 5.1605 43.548 8.1845 45.396 12.1685C47.268 16.1525 48.204 21.0125 48.204 26.7485C48.204 32.1485 47.196 36.8405 45.18 40.8245C43.188 44.7845 40.368 47.8565 36.72 50.0405C33.096 52.2005 28.812 53.2805 23.868 53.2805C18.804 53.2805 14.484 52.2485 10.908 50.1845C7.35602 48.1205 4.64402 45.0965 2.77202 41.1125C0.924016 37.1285 1.62125e-05 32.2685 1.62125e-05 26.5325C1.62125e-05 21.1325 0.996016 16.4525 2.98802 12.4925C5.00402 8.5085 7.83602 5.4365 11.484 3.2765C15.132 1.09249 19.416 0.000495911 24.336 0.000495911ZM31.212 28.4405C31.212 22.5365 30.936 17.8205 30.384 14.2925C29.856 10.7645 29.04 8.2205 27.936 6.6605C26.856 5.1005 25.476 4.3205 23.796 4.3205C22.26 4.3205 20.988 5.0045 19.98 6.3725C18.972 7.7165 18.216 9.9005 17.712 12.9245C17.232 15.9245 16.992 19.8965 16.992 24.8405C16.992 30.7445 17.256 35.4605 17.784 38.9885C18.336 42.5165 19.152 45.0605 20.232 46.6205C21.336 48.1805 22.728 48.9605 24.408 48.9605C25.944 48.9605 27.216 48.2885 28.224 46.9445C29.232 45.5765 29.976 43.3925 30.456 40.3925C30.96 37.3685 31.212 33.3845 31.212 28.4405ZM71.6018 25.7045L70.3778 24.5165C70.8578 24.3725 71.3738 24.2525 71.9258 24.1565C72.4778 24.0605 73.0658 23.9885 73.6898 23.9405C74.3138 23.8685 74.9738 23.8325 75.6698 23.8325C79.1018 23.8325 82.1138 24.3605 84.7058 25.4165C87.2978 26.4725 89.3138 27.9845 90.7538 29.9525C92.2178 31.8965 92.9498 34.2245 92.9498 36.9365C92.9498 40.2485 92.0978 43.1285 90.3938 45.5765C88.7138 48.0245 86.3018 49.9205 83.1578 51.2645C80.0378 52.6085 76.3058 53.2805 71.9618 53.2805C67.7618 53.2805 64.2698 52.7765 61.4858 51.7685C58.7018 50.7605 56.6138 49.3685 55.2218 47.5925C53.8538 45.8165 53.1698 43.7885 53.1698 41.5085C53.1698 39.2045 53.9258 37.3205 55.4378 35.8565C56.9498 34.3685 58.8218 33.6245 61.0538 33.6245C63.4778 33.6245 65.2898 34.2605 66.4898 35.5325C67.7138 36.7805 68.3258 38.4485 68.3258 40.5365L68.3258 44.3885C68.3258 45.7805 68.6258 46.9685 69.2258 47.9525C69.8498 48.9365 70.7258 49.4285 71.8538 49.4285C72.9818 49.4285 73.9418 49.0925 74.7338 48.4205C75.5258 47.7245 76.1378 46.6325 76.5698 45.1445C77.0018 43.6325 77.2178 41.6525 77.2178 39.2045C77.2178 35.5565 76.6418 32.9525 75.4898 31.3925C74.3618 29.8325 72.8018 29.0525 70.8098 29.0525L68.2178 29.0525C67.2338 29.0525 66.5018 28.8365 66.0218 28.4045C65.5418 27.9485 65.3018 27.3125 65.3018 26.4965C65.3018 25.8725 65.4338 25.3205 65.6978 24.8405C65.9858 24.3605 66.4898 23.8085 67.2098 23.1845L83.2298 9.25249L83.6618 13.7165L64.5818 13.7165C63.5738 13.7165 62.7938 13.8965 62.2418 14.2565C61.6898 14.5925 61.3178 15.1565 61.1258 15.9485L60.4058 18.7925C60.2378 19.4885 59.9138 20.0525 59.4338 20.4845C58.9778 20.8925 58.3058 21.0965 57.4178 21.0965C56.5538 21.0965 55.8458 20.8685 55.2938 20.4125C54.7418 19.9325 54.5138 19.2125 54.6098 18.2525L55.9058 4.7885C56.0018 3.7565 56.4218 2.9405 57.1658 2.3405C57.9098 1.7405 58.9058 1.4405 60.1538 1.4405L89.4218 1.4405C90.8858 1.4405 91.9298 1.62049 92.5538 1.9805C93.1778 2.3405 93.4898 2.9165 93.4898 3.7085C93.4898 4.2365 93.2858 4.8365 92.8778 5.5085C92.4938 6.1805 91.6658 7.1045 90.3938 8.2805L71.6018 25.7045Z" fill="#FDD6BA" fill-opacity="1.000000" fill-rule="evenodd"/>
</svg>
