<svg width="85.137756" height="53.281250" viewBox="0 0 85.1378 53.2812" fill="none" xmlns="http://www.w3.org/2000/svg" xmlns:xlink="http://www.w3.org/1999/xlink">
	<desc>
			Created with Pixso.
	</desc>
	<defs/>
	<path id="01" d="M24.336 0.000495911C29.424 0.000495911 33.744 1.0325 37.296 3.0965C40.848 5.1605 43.548 8.1845 45.396 12.1685C47.268 16.1525 48.204 21.0125 48.204 26.7485C48.204 32.1485 47.196 36.8405 45.18 40.8245C43.188 44.7845 40.368 47.8565 36.72 50.0405C33.096 52.2005 28.812 53.2805 23.868 53.2805C18.804 53.2805 14.484 52.2485 10.908 50.1845C7.35602 48.1205 4.64402 45.0965 2.77202 41.1125C0.924016 37.1285 1.62125e-05 32.2685 1.62125e-05 26.5325C1.62125e-05 21.1325 0.996016 16.4525 2.98802 12.4925C5.00402 8.5085 7.83602 5.4365 11.484 3.2765C15.132 1.09249 19.416 0.000495911 24.336 0.000495911ZM31.212 28.4405C31.212 22.5365 30.936 17.8205 30.384 14.2925C29.856 10.7645 29.04 8.2205 27.936 6.6605C26.856 5.1005 25.476 4.3205 23.796 4.3205C22.26 4.3205 20.988 5.0045 19.98 6.3725C18.972 7.7165 18.216 9.9005 17.712 12.9245C17.232 15.9245 16.992 19.8965 16.992 24.8405C16.992 30.7445 17.256 35.4605 17.784 38.9885C18.336 42.5165 19.152 45.0605 20.232 46.6205C21.336 48.1805 22.728 48.9605 24.408 48.9605C25.944 48.9605 27.216 48.2885 28.224 46.9445C29.232 45.5765 29.976 43.3925 30.456 40.3925C30.96 37.3685 31.212 33.3845 31.212 28.4405ZM56.6258 9.8645L58.8218 9.8645C59.6618 9.8645 60.2618 10.0805 60.6218 10.5125C61.0058 10.9445 61.1978 11.7605 61.1978 12.9605L61.1978 42.8045C61.1978 43.7645 61.0058 44.4965 60.6218 45.0005C60.2618 45.4805 59.7338 45.8045 59.0378 45.9725L55.4378 46.7645C53.8298 47.1485 53.0258 48.0125 53.0258 49.3565C53.0258 50.1245 53.2778 50.7365 53.7818 51.1925C54.3098 51.6245 55.1138 51.8405 56.1938 51.8405L82.3658 51.8405C83.3018 51.8405 83.9978 51.6245 84.4538 51.1925C84.9098 50.7365 85.1378 50.1245 85.1378 49.3565C85.1378 47.9885 84.4658 47.1365 83.1218 46.8005L79.9178 45.9725C79.2698 45.8045 78.7658 45.4805 78.4058 45.0005C78.0698 44.4965 77.9018 43.7645 77.9018 42.8045L77.9018 3.2045C77.9018 1.3085 76.9298 0.360497 74.9858 0.360497C74.3858 0.360497 73.8098 0.432495 73.2578 0.5765C72.7298 0.696499 72.1418 0.9245 71.4938 1.2605C69.5018 2.2205 67.6898 2.9525 66.0578 3.4565C64.4258 3.9605 62.4338 4.2125 60.0818 4.2125L56.8418 4.2125C55.8098 4.2125 54.9938 4.4885 54.3938 5.0405C53.7938 5.5685 53.4938 6.2405 53.4938 7.0565C53.4938 7.8725 53.7458 8.54449 54.2498 9.0725C54.7538 9.6005 55.5458 9.8645 56.6258 9.8645Z" fill="#FDD6BA" fill-opacity="1.000000" fill-rule="evenodd"/>
</svg>
