<svg width="97.157776" height="53.281250" viewBox="0 0 97.1578 53.2812" fill="none" xmlns="http://www.w3.org/2000/svg" xmlns:xlink="http://www.w3.org/1999/xlink">
	<desc>
			Created with Pixso.
	</desc>
	<defs/>
	<path id="02" d="M24.336 0.000495911C29.424 0.000495911 33.744 1.0325 37.296 3.0965C40.848 5.1605 43.548 8.1845 45.396 12.1685C47.268 16.1525 48.204 21.0125 48.204 26.7485C48.204 32.1485 47.196 36.8405 45.18 40.8245C43.188 44.7845 40.368 47.8565 36.72 50.0405C33.096 52.2005 28.812 53.2805 23.868 53.2805C18.804 53.2805 14.484 52.2485 10.908 50.1845C7.35602 48.1205 4.64402 45.0965 2.77202 41.1125C0.924016 37.1285 1.62125e-05 32.2685 1.62125e-05 26.5325C1.62125e-05 21.1325 0.996016 16.4525 2.98802 12.4925C5.00402 8.5085 7.83602 5.4365 11.484 3.2765C15.132 1.09249 19.416 0.000495911 24.336 0.000495911ZM31.212 28.4405C31.212 22.5365 30.936 17.8205 30.384 14.2925C29.856 10.7645 29.04 8.2205 27.936 6.6605C26.856 5.1005 25.476 4.3205 23.796 4.3205C22.26 4.3205 20.988 5.0045 19.98 6.3725C18.972 7.7165 18.216 9.9005 17.712 12.9245C17.232 15.9245 16.992 19.8965 16.992 24.8405C16.992 30.7445 17.256 35.4605 17.784 38.9885C18.336 42.5165 19.152 45.0605 20.232 46.6205C21.336 48.1805 22.728 48.9605 24.408 48.9605C25.944 48.9605 27.216 48.2885 28.224 46.9445C29.232 45.5765 29.976 43.3925 30.456 40.3925C30.96 37.3685 31.212 33.3845 31.212 28.4405ZM59.8298 39.6725L57.3818 37.8005L64.0058 34.4165C66.6218 33.0725 68.8418 31.5245 70.6658 29.7725C72.4898 28.0205 73.8698 25.9685 74.8058 23.6165C75.7658 21.2645 76.2458 18.5285 76.2458 15.4085C76.2458 12.5285 76.0778 10.2365 75.7418 8.5325C75.4298 6.8045 74.9618 5.5565 74.3378 4.7885C73.7378 4.0205 73.0058 3.6365 72.1418 3.6365C70.9418 3.6365 70.0898 4.1885 69.5858 5.2925C69.1058 6.3965 68.8658 7.9205 68.8658 9.8645L68.8658 14.8685C68.8658 17.0765 68.1818 18.8405 66.8138 20.1605C65.4698 21.4805 63.5858 22.1405 61.1618 22.1405C58.8818 22.1405 57.0578 21.4325 55.6898 20.0165C54.3458 18.6005 53.6738 16.6085 53.6738 14.0405C53.6738 11.5925 54.3818 9.3005 55.7978 7.1645C57.2378 5.0285 59.4458 3.3005 62.4218 1.9805C65.3978 0.660496 69.2018 0.000495911 73.8338 0.000495911C78.4178 0.000495911 82.1738 0.636497 85.1018 1.9085C88.0298 3.1805 90.1898 4.9445 91.5818 7.2005C92.9978 9.4325 93.7058 11.9885 93.7058 14.8685C93.7058 17.4125 92.9858 19.7645 91.5458 21.9245C90.1058 24.0845 87.8618 26.1605 84.8138 28.1525C81.7898 30.1205 77.9018 32.1005 73.1498 34.0925L59.8298 39.6725ZM52.5578 45.3605C52.5578 42.5285 53.6618 40.2725 55.8698 38.5925C58.0778 36.8885 61.2818 36.0365 65.4818 36.0365C67.3778 36.0365 69.1658 36.1565 70.8458 36.3965C72.5258 36.6125 74.1698 36.8645 75.7778 37.1525C77.3858 37.4405 79.0298 37.7045 80.7098 37.9445C82.3898 38.1605 84.1658 38.2685 86.0378 38.2685C87.6458 38.2685 88.9418 37.9685 89.9258 37.3685C90.9338 36.7445 91.8458 35.7725 92.6618 34.4525C93.0458 33.8285 93.4538 33.3965 93.8858 33.1565C94.3418 32.9165 94.8338 32.8205 95.3618 32.8685C95.9858 32.9165 96.4538 33.2165 96.7658 33.7685C97.1018 34.2965 97.2218 35.1485 97.1258 36.3245C96.8138 40.4045 96.0938 43.6925 94.9658 46.1885C93.8378 48.6605 92.3378 50.4605 90.4658 51.5885C88.6178 52.7165 86.4338 53.2805 83.9138 53.2805C81.8978 53.2805 80.1338 52.9925 78.6218 52.4165C77.1338 51.8645 75.8498 50.9405 74.7698 49.6445C73.7138 48.3485 72.8018 46.5965 72.0338 44.3885C71.6498 43.2125 71.2898 42.4445 70.9538 42.0845C70.6418 41.7245 70.2218 41.5445 69.6938 41.5445C69.1178 41.5445 68.6378 41.8205 68.2538 42.3725C67.8698 42.9005 67.6178 43.7765 67.4978 45.0005C67.3298 47.0405 66.8978 48.6725 66.2018 49.8965C65.5058 51.0965 64.5698 51.9605 63.3938 52.4885C62.2418 53.0165 60.8618 53.2805 59.2538 53.2805C57.3098 53.2805 55.7018 52.5725 54.4298 51.1565C53.1818 49.7165 52.5578 47.7845 52.5578 45.3605Z" fill="#FDD6BA" fill-opacity="1.000000" fill-rule="evenodd"/>
</svg>
