<svg width="72.000000" height="50.000000" viewBox="0 0 72 50" fill="none" xmlns="http://www.w3.org/2000/svg" xmlns:xlink="http://www.w3.org/1999/xlink">
	<desc>
			Created with Pixso.
	</desc>
	<defs/>
	<path id="Combined Shape" d="M16.4335 4.229L13.1274 4.229L13.1274 0L48.4615 0L48.4615 35.397C46.2975 37.2612 44.8997 39.9956 44.8102 43.0557L27.05 43.0557C26.8847 37.4092 22.263 32.8657 16.6017 32.8657C10.9403 32.8657 6.31863 37.4087 6.15332 43.0557L0 43.0557L0 29.1201L11.7695 29.1201C13.2731 29.1201 14.4964 27.8916 14.4964 26.3813C14.4964 24.8711 13.2731 23.6426 11.7695 23.6426L8.34464 23.6426L8.34464 19.4136L26.2659 19.4136C27.7695 19.4136 28.9928 18.1846 28.9928 16.6748C28.9928 15.1646 27.7695 13.9355 26.2659 13.9355L0 13.9355L0 9.70654L16.6017 9.70654C18.1053 9.70654 19.3284 8.47803 19.3284 6.96826C19.3284 5.50879 17.9756 4.229 16.4335 4.229ZM4.84616 0L9 0L9 4.1665L4.84616 4.1665L4.84616 0ZM61.0623 4.86133L70.6154 19.4443L52.6154 19.4443L52.6154 4.86133L61.0623 4.86133ZM0 19.4443L4.15384 19.4443L4.15384 23.6113L0 23.6113L0 19.4443ZM52.6154 33.1753L52.6154 23.6113L72 23.6113L72 43.0557L65.7837 43.0557C65.6166 37.3999 60.9476 32.8491 55.2283 32.8491C54.3266 32.8491 53.4514 32.9629 52.6154 33.1753ZM10.3846 43.75C10.3846 40.3037 13.1798 37.5 16.6154 37.5C20.051 37.5 22.8462 40.3037 22.8462 43.75C22.8462 47.1963 20.051 50 16.6154 50C13.1798 50 10.3846 47.1963 10.3846 43.75ZM49.1538 43.75C49.1538 40.3037 51.949 37.5 55.3846 37.5C58.8202 37.5 61.6154 40.3037 61.6154 43.75C61.6154 47.1963 58.8202 50 55.3846 50C51.949 50 49.1538 47.1963 49.1538 43.75ZM14.5152 45.8569L18.7157 45.8569L18.7157 41.6431L14.5152 41.6431L14.5152 45.8569ZM53.2843 45.8569L57.4848 45.8569L57.4848 41.6431L53.2843 41.6431L53.2843 45.8569Z" clip-rule="evenodd" fill="#FDD6BA" fill-opacity="1.000000" fill-rule="evenodd"/>
</svg>
